<svg width="73" height="73" viewBox="0 0 73 73" fill="none" xmlns="http://www.w3.org/2000/svg">
<path d="M21.2917 51.7479L34.7146 51.7022L64.0119 22.6848C65.1616 21.535 65.7943 20.0081 65.7943 18.3838C65.7943 16.7596 65.1616 15.2327 64.0119 14.0829L59.1878 9.25883C56.8883 6.95933 52.8764 6.9715 50.5951 9.24971L21.2917 38.2733V51.7479ZM54.8869 13.5597L59.7201 18.3747L54.8626 23.1866L50.0385 18.3656L54.8869 13.5597ZM27.375 40.81L45.7163 22.6422L50.5404 27.4662L32.2021 45.628L27.375 45.6432V40.81Z" fill="#463321"/>
<path d="M15.2083 63.875H57.7917C61.1466 63.875 63.875 61.1466 63.875 57.7917V31.4265L57.7917 37.5098V57.7917H24.8139C24.7348 57.7917 24.6527 57.8221 24.5736 57.8221C24.4733 57.8221 24.3729 57.7947 24.2695 57.7917H15.2083V15.2083H36.0346L42.118 9.125H15.2083C11.8534 9.125 9.125 11.8534 9.125 15.2083V57.7917C9.125 61.1466 11.8534 63.875 15.2083 63.875Z" fill="#463321"/>
</svg>
